<svg width="22" height="22" viewBox="0 0 22 22" fill="none" xmlns="http://www.w3.org/2000/svg">
<path d="M8.49992 1.83331L13.4999 1.83331C15.8335 1.83331 17.0002 1.83331 17.8915 2.28745C18.6756 2.68692 19.313 3.32434 19.7124 4.10835C20.1666 4.99965 20.1666 6.16643 20.1666 8.49998V13.5C20.1666 15.8335 20.1666 17.0003 19.7124 17.8916C19.313 18.6756 18.6756 19.313 17.8915 19.7125C17.0002 20.1666 15.8335 20.1666 13.4999 20.1666H8.49992M8.49992 1.83331C6.16637 1.83331 4.99959 1.83331 4.10829 2.28745C3.32428 2.68693 2.68686 3.32434 2.28739 4.10835C1.83325 4.99965 1.83325 6.16643 1.83325 8.49998L1.83325 13.5C1.83325 15.8335 1.83325 17.0003 2.28739 17.8916C2.68686 18.6756 3.32428 19.313 4.10829 19.7125C4.99959 20.1666 6.16637 20.1666 8.49992 20.1666M8.49992 1.83331L8.49992 20.1666M8.49992 11H20.1666" stroke="#0A77FF" stroke-width="2" stroke-linecap="round"/>
</svg>
