<svg width="20" height="20" viewBox="0 0 20 20" fill="none" xmlns="http://www.w3.org/2000/svg">
<path d="M19.1666 10C19.1666 10.9581 19.0196 11.8819 18.7469 12.75C18.054 14.9562 16.5495 16.8029 14.5833 17.9403C13.235 18.7203 11.6696 19.1667 9.99992 19.1667C8.99745 19.1667 8.03257 19.0058 7.12969 18.7083C3.4729 17.5038 0.833252 14.0602 0.833252 10C0.833252 4.9374 4.93731 0.833344 9.99992 0.833344M19.1666 10C19.1666 8.8713 18.9626 7.79024 18.5894 6.79168C18.3764 6.22167 18.1083 5.67854 17.7916 5.16879C16.1744 2.56615 13.2895 0.833344 9.99992 0.833344M19.1666 10H10.4999C10.2238 10 9.99992 9.77615 9.99992 9.50001V0.833344" stroke="#858C95" stroke-width="1.67" stroke-linecap="round"/>
</svg>
