<svg width="56" height="56" viewBox="0 0 56 56" fill="none" xmlns="http://www.w3.org/2000/svg">
<path d="M0.5 28C0.5 12.8122 12.8122 0.5 28 0.5C43.1878 0.5 55.5 12.8122 55.5 28C55.5 43.1878 43.1878 55.5 28 55.5C12.8122 55.5 0.5 43.1878 0.5 28Z" fill="#F8F9FB"/>
<path d="M0.5 28C0.5 12.8122 12.8122 0.5 28 0.5C43.1878 0.5 55.5 12.8122 55.5 28C55.5 43.1878 43.1878 55.5 28 55.5C12.8122 55.5 0.5 43.1878 0.5 28Z" stroke="#E5E5E7"/>
<path d="M28.0001 29.4167C31.9121 29.4167 35.0834 26.2454 35.0834 22.3334C35.0834 18.4213 31.9121 15.25 28.0001 15.25C24.0881 15.25 20.9167 18.4213 20.9167 22.3334C20.9167 26.2454 24.0881 29.4167 28.0001 29.4167Z" fill="#858C95"/>
<path d="M14.3893 37.9902C16.0969 33.8562 21.5442 30.8334 28.0001 30.8334C34.4559 30.8334 39.9032 33.8562 41.6109 37.9902C42.2083 39.4365 40.8982 40.7501 39.3334 40.7501H16.6667C15.1019 40.7501 13.7918 39.4365 14.3893 37.9902Z" fill="#858C95"/>
</svg>
