<svg width="20" height="18" viewBox="0 0 20 18" fill="none" xmlns="http://www.w3.org/2000/svg">
<path d="M0.833252 10.8333C0.833252 9.8208 1.65406 8.99999 2.66659 8.99999C3.67911 8.99999 4.49992 9.8208 4.49992 10.8333V14.5C4.49992 15.5125 3.67911 16.3333 2.66659 16.3333C1.65406 16.3333 0.833252 15.5125 0.833252 14.5V10.8333Z" stroke="#858C95" stroke-width="1.67"/>
<path d="M8.16658 3.49999C8.16658 2.48747 8.9874 1.66666 9.99992 1.66666C11.0124 1.66666 11.8333 2.48747 11.8333 3.49999V14.5C11.8333 15.5125 11.0124 16.3333 9.99992 16.3333C8.9874 16.3333 8.16658 15.5125 8.16658 14.5V3.49999Z" stroke="#858C95" stroke-width="1.67"/>
<path d="M15.4999 7.16666C15.4999 6.15413 16.3207 5.33332 17.3333 5.33332C18.3458 5.33332 19.1666 6.15413 19.1666 7.16666V14.5C19.1666 15.5125 18.3458 16.3333 17.3333 16.3333C16.3207 16.3333 15.4999 15.5125 15.4999 14.5V7.16666Z" stroke="#858C95" stroke-width="1.67"/>
</svg>
