<svg width="22" height="22" viewBox="0 0 22 22" fill="none" xmlns="http://www.w3.org/2000/svg">
<path d="M3.41929 20.5838L3.87328 19.6928L3.41929 20.5838ZM1.4163 18.5808L2.30731 18.1268L1.4163 18.5808ZM16.9172 18.5808L16.0262 18.1268L16.9172 18.5808ZM14.9142 20.5838L14.4602 19.6928L14.9142 20.5838ZM14.9142 5.08288L14.4602 5.97388L14.9142 5.08288ZM16.9172 7.08587L16.0262 7.53986L16.9172 7.08587ZM3.41929 5.08288L3.87328 5.97388L3.41929 5.08288ZM1.4163 7.08587L2.30731 7.53986L1.4163 7.08587ZM17.4167 16.4167C16.8645 16.4167 16.4167 16.8644 16.4167 17.4167C16.4167 17.9689 16.8645 18.4167 17.4167 18.4167V16.4167ZM3.58342 4.58332C3.58342 5.13561 4.03113 5.58332 4.58342 5.58332C5.1357 5.58332 5.58342 5.13561 5.58342 4.58332H3.58342ZM4.80858 14.8609C4.40962 15.2429 4.3958 15.8759 4.7777 16.2748C5.15961 16.6738 5.79262 16.6876 6.19158 16.3057L4.80858 14.8609ZM12.1419 16.3057C12.5409 16.6876 13.1739 16.6738 13.5558 16.2748C13.9377 15.8759 13.9239 15.2429 13.5249 14.8609L12.1419 16.3057ZM8.25008 5.58332H10.0834V3.58332H8.25008V5.58332ZM16.4167 11.9167V13.75H18.4167V11.9167H16.4167ZM10.0834 20.0833H8.25008V22.0833H10.0834V20.0833ZM1.91675 13.75V11.9167H-0.083252V13.75H1.91675ZM8.25008 20.0833C6.95013 20.0833 6.0353 20.0825 5.32119 20.0242C4.61875 19.9668 4.19903 19.8587 3.87328 19.6928L2.9653 21.4748C3.61998 21.8084 4.3322 21.9501 5.15833 22.0176C5.97277 22.0841 6.98313 22.0833 8.25008 22.0833V20.0833ZM-0.083252 13.75C-0.083252 15.0169 -0.0840297 16.0273 -0.0174867 16.8417C0.0500101 17.6679 0.191718 18.3801 0.525295 19.0348L2.30731 18.1268C2.14133 17.801 2.03326 17.3813 1.97587 16.6789C1.91753 15.9648 1.91675 15.0499 1.91675 13.75H-0.083252ZM3.87328 19.6928C3.19903 19.3492 2.65085 18.801 2.30731 18.1268L0.525295 19.0348C1.06059 20.0853 1.91473 20.9395 2.9653 21.4748L3.87328 19.6928ZM16.4167 13.75C16.4167 15.0499 16.416 15.9648 16.3576 16.6789C16.3002 17.3813 16.1922 17.801 16.0262 18.1268L17.8082 19.0348C18.1418 18.3801 18.2835 17.6679 18.351 16.8417C18.4175 16.0273 18.4167 15.0169 18.4167 13.75H16.4167ZM10.0834 22.0833C11.3504 22.0833 12.3607 22.0841 13.1752 22.0176C14.0013 21.9501 14.7135 21.8084 15.3682 21.4748L14.4602 19.6928C14.1345 19.8587 13.7147 19.9668 13.0123 20.0242C12.2982 20.0825 11.3834 20.0833 10.0834 20.0833V22.0833ZM16.0262 18.1268C15.6826 18.801 15.1345 19.3492 14.4602 19.6928L15.3682 21.4748C16.4188 20.9395 17.2729 20.0853 17.8082 19.0348L16.0262 18.1268ZM10.0834 5.58332C11.3834 5.58332 12.2982 5.5841 13.0123 5.64245C13.7147 5.69984 14.1345 5.80791 14.4602 5.97388L15.3682 4.19187C14.7135 3.85829 14.0013 3.71659 13.1752 3.64909C12.3607 3.58255 11.3504 3.58332 10.0834 3.58332V5.58332ZM18.4167 11.9167C18.4167 10.6497 18.4175 9.63935 18.351 8.8249C18.2835 7.99878 18.1418 7.28656 17.8082 6.63188L16.0262 7.53986C16.1922 7.8656 16.3002 8.28533 16.3576 8.98776C16.416 9.70188 16.4167 10.6167 16.4167 11.9167H18.4167ZM14.4602 5.97388C15.1345 6.31743 15.6826 6.86561 16.0262 7.53986L17.8082 6.63188C17.2729 5.58131 16.4188 4.72716 15.3682 4.19187L14.4602 5.97388ZM8.25008 3.58332C6.98313 3.58332 5.97277 3.58255 5.15833 3.64909C4.3322 3.71659 3.61998 3.85829 2.9653 4.19187L3.87328 5.97388C4.19903 5.80791 4.61875 5.69984 5.32119 5.64245C6.0353 5.5841 6.95013 5.58332 8.25008 5.58332V3.58332ZM1.91675 11.9167C1.91675 10.6167 1.91753 9.70188 1.97587 8.98776C2.03326 8.28533 2.14133 7.8656 2.30731 7.53986L0.525295 6.63188C0.191718 7.28656 0.0500101 7.99878 -0.0174867 8.8249C-0.0840297 9.63935 -0.083252 10.6497 -0.083252 11.9167H1.91675ZM2.9653 4.19187C1.91473 4.72716 1.06059 5.5813 0.525295 6.63188L2.30731 7.53986C2.65085 6.86561 3.19903 6.31743 3.87328 5.97388L2.9653 4.19187ZM8.25008 1.91666H16.5001V-0.0833435H8.25008V1.91666ZM20.0834 5.49999V13.75H22.0834V5.49999H20.0834ZM20.0834 13.75C20.0834 15.2228 18.8895 16.4167 17.4167 16.4167V18.4167C19.9941 18.4167 22.0834 16.3273 22.0834 13.75H20.0834ZM16.5001 1.91666C18.4791 1.91666 20.0834 3.52097 20.0834 5.49999H22.0834C22.0834 2.4164 19.5837 -0.0833435 16.5001 -0.0833435V1.91666ZM8.25008 -0.0833435C5.67275 -0.0833435 3.58342 2.00599 3.58342 4.58332H5.58342C5.58342 3.11056 6.77732 1.91666 8.25008 1.91666V-0.0833435ZM6.19158 16.3057C7.82993 14.7374 10.5036 14.7374 12.1419 16.3057L13.5249 14.8609C11.1132 12.5523 7.22032 12.5523 4.80858 14.8609L6.19158 16.3057ZM10.6262 11.4921C10.6262 12.1835 10.0278 12.8176 9.19683 12.8176V14.8176C11.0492 14.8176 12.6262 13.3695 12.6262 11.4921H10.6262ZM9.19683 12.8176C8.36581 12.8176 7.7675 12.1835 7.7675 11.4921H5.7675C5.7675 13.3695 7.34449 14.8176 9.19683 14.8176V12.8176ZM7.7675 11.4921C7.7675 10.8008 8.36581 10.1667 9.19683 10.1667V8.16666C7.34449 8.16666 5.7675 9.61481 5.7675 11.4921H7.7675ZM9.19683 10.1667C10.0278 10.1667 10.6262 10.8008 10.6262 11.4921H12.6262C12.6262 9.61481 11.0492 8.16666 9.19683 8.16666V10.1667Z" fill="#858C95"/>
</svg>
