<svg width="112" height="228" viewBox="0 0 112 228" fill="none" xmlns="http://www.w3.org/2000/svg">
<path d="M92.2594 227.632H19.7404C9.19228 227.632 0.611816 219.052 0.611816 208.503V19.1286C0.611816 8.58046 9.19228 0 19.7404 0H92.2594C102.808 0 111.388 8.58046 111.388 19.1286V208.503C111.388 219.052 102.808 227.632 92.2594 227.632Z" fill="#DADBDC"/>
<path d="M92.3121 222.454H19.6879C11.881 222.454 5.52734 216.1 5.52734 208.293V18.9672C5.52734 11.1603 11.881 4.80664 19.6879 4.80664H92.3121C100.119 4.80664 106.473 11.1603 106.473 18.9672V208.293C106.473 216.1 100.119 222.454 92.3121 222.454Z" fill="white"/>
<path d="M66.2701 17.409H45.7333C43.0221 17.409 40.8179 15.2048 40.8179 12.4936C40.8179 9.78238 43.0221 7.57812 45.7333 7.57812H66.2701C68.9813 7.57812 71.1856 9.78238 71.1856 12.4936C71.1856 15.2048 68.9813 17.409 66.2701 17.409Z" fill="#DADBDC"/>
<path d="M87.2276 75.2227H27.1343C25.9439 75.2227 24.9751 73.991 24.9751 72.4815C24.9751 70.9719 25.9439 69.7402 27.1343 69.7402H87.2276C88.418 69.7402 89.3868 70.9719 89.3868 72.4815C89.3868 73.991 88.418 75.2227 87.2276 75.2227Z" fill="#DADBDC"/>
<path d="M87.2276 87.3702H27.1343C25.9439 87.3702 24.9751 86.1385 24.9751 84.6289C24.9751 83.1194 25.9439 81.8877 27.1343 81.8877H87.2276C88.418 81.8877 89.3868 83.1194 89.3868 84.6289C89.3868 86.1385 88.418 87.3702 87.2276 87.3702Z" fill="#DADBDC"/>
<path d="M69.9953 99.5186H27.1343C25.9439 99.5186 24.9751 98.2869 24.9751 96.7774C24.9751 95.2678 25.9439 94.0361 27.1343 94.0361H69.9953C71.1857 94.0361 72.1545 95.2678 72.1545 96.7774C72.1545 98.2869 71.1857 99.5186 69.9953 99.5186Z" fill="#DADBDC"/>
<path d="M55.9999 170.941C70.1667 170.941 81.6512 159.457 81.6512 145.29C81.6512 131.123 70.1667 119.639 55.9999 119.639C41.8331 119.639 30.3486 131.123 30.3486 145.29C30.3486 159.457 41.8331 170.941 55.9999 170.941Z" fill="#0A77FF"/>
<path d="M49.1768 145.823C50.5024 148.417 51.8279 151.016 53.1535 153.611C53.5328 154.358 54.648 154.121 54.8696 153.385C56.6082 147.588 59.8376 142.304 64.1898 138.102C65.061 137.261 63.7317 135.935 62.8605 136.773C58.2793 141.196 54.8884 146.788 53.0559 152.886L54.772 152.661C53.4464 150.066 52.1208 147.467 50.7953 144.873C50.247 143.795 48.6248 144.745 49.1731 145.819H49.1768V145.823Z" fill="white"/>
</svg>
