<svg width="82" height="112" viewBox="0 0 82 112" fill="none" xmlns="http://www.w3.org/2000/svg">
<path d="M58.8114 111.819H23.188C18.0065 111.819 13.7915 107.604 13.7915 102.423V9.39651C13.7915 4.21496 18.0065 0 23.188 0H58.8114C63.9929 0 68.2079 4.21496 68.2079 9.39651V102.423C68.2079 107.604 63.9929 111.819 58.8114 111.819Z" fill="#DADBDC"/>
<path d="M58.8372 109.276H23.1621C19.3272 109.276 16.2061 106.155 16.2061 102.32V9.3174C16.2061 5.48243 19.3272 2.36133 23.1621 2.36133H58.8372C62.6721 2.36133 65.7932 5.48243 65.7932 9.3174V102.32C65.7932 106.155 62.6721 109.276 58.8372 109.276Z" fill="white"/>
<path d="M46.0449 8.55188H35.9566C34.6248 8.55188 33.542 7.46909 33.542 6.13727C33.542 4.80545 34.6248 3.72266 35.9566 3.72266H46.0449C47.3767 3.72266 48.4595 4.80545 48.4595 6.13727C48.4595 7.46909 47.3767 8.55188 46.0449 8.55188Z" fill="#DADBDC"/>
<path d="M56.3394 36.9519H26.8199C26.2352 36.9519 25.7593 36.3469 25.7593 35.6054C25.7593 34.8638 26.2352 34.2588 26.8199 34.2588H56.3394C56.9242 34.2588 57.4001 34.8638 57.4001 35.6054C57.4001 36.3469 56.9242 36.9519 56.3394 36.9519Z" fill="#DADBDC"/>
<path d="M56.3394 42.9187H26.8199C26.2352 42.9187 25.7593 42.3137 25.7593 41.5722C25.7593 40.8306 26.2352 40.2256 26.8199 40.2256H56.3394C56.9242 40.2256 57.4001 40.8306 57.4001 41.5722C57.4001 42.3137 56.9242 42.9187 56.3394 42.9187Z" fill="#DADBDC"/>
<path d="M47.8745 48.8865H26.8199C26.2352 48.8865 25.7593 48.2815 25.7593 47.5399C25.7593 46.7984 26.2352 46.1934 26.8199 46.1934H47.8745C48.4592 46.1934 48.9351 46.7984 48.9351 47.5399C48.9351 48.2815 48.4592 48.8865 47.8745 48.8865Z" fill="#DADBDC"/>
<path d="M40.9996 83.9708C47.9587 83.9708 53.6002 78.3293 53.6002 71.3702C53.6002 64.411 47.9587 58.7695 40.9996 58.7695C34.0404 58.7695 28.3989 64.411 28.3989 71.3702C28.3989 78.3293 34.0404 83.9708 40.9996 83.9708Z" fill="#0A77FF"/>
<path d="M37.6479 71.6323C38.2991 72.9069 38.9503 74.1834 39.6014 75.4581C39.7877 75.8251 40.3356 75.7089 40.4444 75.3474C41.2985 72.4993 42.8848 69.9039 45.0228 67.8398C45.4507 67.4266 44.7977 66.7754 44.3698 67.1868C42.1193 69.3597 40.4536 72.1064 39.5534 75.1021L40.3964 74.9914C39.7453 73.7167 39.0941 72.4403 38.443 71.1656C38.1737 70.6362 37.3768 71.1029 37.6461 71.6305H37.6479V71.6323Z" fill="white"/>
</svg>
