<svg width="304" height="228" viewBox="0 0 304 228" fill="none" xmlns="http://www.w3.org/2000/svg">
<path opacity="0.4" d="M256.351 87.6566C260.366 87.6566 263.62 84.4023 263.62 80.3879C263.62 76.3735 260.366 73.1191 256.351 73.1191C252.337 73.1191 249.083 76.3735 249.083 80.3879C249.083 84.4023 252.337 87.6566 256.351 87.6566Z" fill="#2C8AFF"/>
<path opacity="0.4" d="M103.096 47.667C108.819 47.667 113.458 43.0278 113.458 37.3052C113.458 31.5825 108.819 26.9434 103.096 26.9434C97.3735 26.9434 92.7344 31.5825 92.7344 37.3052C92.7344 43.0278 97.3735 47.667 103.096 47.667Z" fill="#2C8AFF"/>
<path opacity="0.4" d="M83.9191 49.5238C87.9335 49.5238 91.1879 46.2695 91.1879 42.2551C91.1879 38.2407 87.9335 34.9863 83.9191 34.9863C79.9047 34.9863 76.6504 38.2407 76.6504 42.2551C76.6504 46.2695 79.9047 49.5238 83.9191 49.5238Z" fill="#2C8AFF"/>
<path d="M262.439 161.671C256.696 167.959 256.487 177.118 256.487 177.118C256.487 177.118 265.59 176.083 271.334 169.795C277.077 163.507 277.286 154.348 277.286 154.348C277.286 154.348 268.182 155.383 262.439 161.671Z" fill="#3F3D56"/>
<path d="M265.683 163.481C263.945 171.818 256.64 177.347 256.64 177.347C256.64 177.347 252.152 169.359 253.89 161.022C255.628 152.685 262.934 147.156 262.934 147.156C262.934 147.156 267.421 155.144 265.683 163.481Z" fill="#2C8AFF"/>
<path d="M258.224 77.4551V176.838L225.096 204.205H55.6162V100.02L105.068 77.4551H258.224Z" fill="#3F3D56"/>
<path opacity="0.1" d="M258.224 77.4551V77.8533L246.331 85.8137L225.096 100.02H55.6162L105.068 77.4551H258.224Z" fill="black"/>
<path opacity="0.1" d="M258.224 77.4551V176.838L225.096 204.205L225.336 99.7804L246.332 85.8137L258.032 77.4551H258.224Z" fill="black"/>
<path d="M213.573 91.1394H110.349L118.031 86.8184H216.934L213.573 91.1394Z" fill="#2F2E41"/>
<path d="M191.747 75.4008C191.747 75.4008 191.897 77.0481 192.196 77.1978C192.496 77.3476 194.742 81.0915 192.196 81.8403C189.65 82.589 188.153 82.2895 187.554 82.589C186.955 82.8885 176.472 83.4876 176.322 81.8403C176.172 80.1929 181.414 79.8934 181.414 79.8934C181.414 79.8934 186.206 76.7486 186.955 75.1013C187.703 73.454 191.747 75.4008 191.747 75.4008Z" fill="#2F2E41"/>
<path d="M222.147 78.3965C222.147 78.3965 225.741 84.5364 224.843 85.2852C223.944 86.034 215.193 88.7627 213.91 88.8794C212.263 89.0291 211.065 87.6813 212.413 86.9325C213.761 86.1837 216.606 83.0389 216.606 81.9906V79.295L222.147 78.3965Z" fill="#2F2E41"/>
<path d="M211.051 89.2668L169.619 2.92773L100.341 36.173L125.819 89.2668H211.051Z" fill="#F2F2F2"/>
<path d="M155.598 36.8169L118.802 54.4746L119.898 56.7585L156.694 39.1008L155.598 36.8169Z" fill="#3F3D56"/>
<path d="M165.34 57.1196L128.544 74.7773L129.64 77.0612L166.436 59.4035L165.34 57.1196Z" fill="#3F3D56"/>
<path d="M172.032 24.8719L162.897 29.2559L167.281 38.3915L176.416 34.0075L172.032 24.8719Z" fill="#3F3D56"/>
<path d="M181.775 45.1727L172.639 49.5566L177.023 58.6922L186.158 54.3082L181.775 45.1727Z" fill="#3F3D56"/>
<path d="M172.662 18.5449L168.9 29.2496L163.828 27.467L163.134 29.4416L170.174 31.9157L174.636 19.239L172.662 18.5449Z" fill="#32D74B"/>
<path d="M182.404 38.8457L178.641 49.5504L173.57 47.7681L172.876 49.7424L179.916 52.2165L184.379 39.5397L182.404 38.8457Z" fill="#32D74B"/>
</svg>
